<svg width="79" height="30" viewBox="0 0 79 30" fill="none" xmlns="http://www.w3.org/2000/svg">
<path d="M7.71875 22.875L5.53125 26H0.125L18.2344 0.125L30 26H24.5938L23.1719 22.875H7.71875ZM17.0938 9.5L11 18.1875H21.0469L17.0938 9.5ZM38.0156 30L26.25 4.125H31.6562L39.1562 20.625L50.7031 4.125H56.125L38.0156 30ZM56.8125 4.125H72.4375C76.6042 4.125 78.4323 6.20833 77.9219 10.375L77.5312 13.5C77.0312 17.6146 74.75 19.6979 70.6875 19.75L76.1719 26H69.5156L64.0312 19.75H59.5781L58.8125 26H54.125L56.8125 4.125ZM60.9219 8.8125L60.1562 15.0625H71.0938C72.1354 15.0625 72.7188 14.5417 72.8438 13.5L73.2344 10.375C73.3594 9.33333 72.901 8.8125 71.8594 8.8125H60.9219Z" fill="black"/>
</svg>
