<svg width="52" height="384" viewBox="0 0 52 384" fill="none" xmlns="http://www.w3.org/2000/svg">
<g filter="url(#filter0_i_25_138)">
<path d="M0.25 347.25C0.25 338.917 4.41667 335.26 12.75 336.281V345.656C10.6667 345.406 9.625 346.323 9.625 348.406V367.156C9.625 369.24 10.6667 370.406 12.75 370.656L14.3125 370.844C16.3958 371.115 17.4375 370.208 17.4375 368.125L17.4375 349.375C17.4375 341.042 21.6042 337.385 29.9375 338.406L31.5 338.594C39.8333 339.615 44 344.292 44 352.625L44 371.375C44 379.708 39.8333 383.365 31.5 382.344V372.969C33.5833 373.219 34.625 372.302 34.625 370.219L34.625 351.469C34.625 349.385 33.5833 348.219 31.5 347.969L29.9375 347.781C27.8542 347.51 26.8125 348.417 26.8125 350.5L26.8125 369.25C26.8125 377.583 22.6458 381.24 14.3125 380.219L12.75 380.031C4.41667 379.01 0.25 374.333 0.25 366L0.25 347.25ZM34.625 323.344L34.625 288.969L44 290.125L44 333.875L0.25 328.5L0.25 284.75L9.625 285.906L9.625 320.281L17.4375 321.25L17.4375 286.875L26.8125 288L26.8125 322.375L34.625 323.344ZM0.25 278.5L0.25 247.25C0.25 238.917 4.41667 235.26 12.75 236.281L19 237.062C27.2292 238.062 31.3958 242.625 31.5 250.75L44 239.781V253.094L31.5 264.062V272.969L44 274.5V283.875L0.25 278.5ZM9.625 270.281L22.125 271.812L22.125 249.938C22.125 247.854 21.0833 246.688 19 246.438L12.75 245.656C10.6667 245.406 9.625 246.323 9.625 248.406V270.281ZM52 209.844L0.25 233.375V222.562L33.25 207.562L0.25 184.469V173.625L52 209.844ZM0.25 150.375L9.625 151.531V157.781L34.625 160.844L34.625 154.594L44 155.75V177.625L34.625 176.469V170.219L9.625 167.156L9.625 173.406L0.25 172.25L0.25 150.375ZM12.75 101.906L15.875 102.281V111.656L12.75 111.281C10.6667 111.031 9.625 111.948 9.625 114.031L9.625 132.781C9.625 134.865 10.6667 136.031 12.75 136.281L31.5 138.594C33.5833 138.844 34.625 137.927 34.625 135.844V117.094C34.625 115.01 33.5833 113.844 31.5 113.594L28.375 113.219V103.844L31.5 104.219C39.8333 105.24 44 109.917 44 118.25V137C44 145.333 39.8333 148.99 31.5 147.969L12.75 145.656C4.41667 144.635 0.25 139.958 0.25 131.625L0.25 112.875C0.25 104.542 4.41667 100.885 12.75 101.906ZM34.625 88.9688V54.5938L44 55.75V99.5L0.25 94.125L0.25 50.375L9.625 51.5312L9.625 85.9062L17.4375 86.875V52.5L26.8125 53.625V88L34.625 88.9688ZM0.25 12.875C0.25 4.54167 4.41667 0.885417 12.75 1.90625V11.2812C10.6667 11.0312 9.625 11.9479 9.625 14.0312V32.7812C9.625 34.8646 10.6667 36.0312 12.75 36.2812L14.3125 36.4688C16.3958 36.7396 17.4375 35.8333 17.4375 33.75V15C17.4375 6.66667 21.6042 3.01042 29.9375 4.03125L31.5 4.21875C39.8333 5.23958 44 9.91667 44 18.25V37C44 45.3333 39.8333 48.9896 31.5 47.9688V38.5938C33.5833 38.8438 34.625 37.9271 34.625 35.8438V17.0938C34.625 15.0104 33.5833 13.8438 31.5 13.5938L29.9375 13.4062C27.8542 13.1354 26.8125 14.0417 26.8125 16.125V34.875C26.8125 43.2083 22.6458 46.8646 14.3125 45.8438L12.75 45.6562C4.41667 44.6354 0.25 39.9583 0.25 31.625L0.25 12.875Z" fill="white"/>
</g>
<defs>
<filter id="filter0_i_25_138" x="0.25" y="0.375" width="51.75" height="387.5" filterUnits="userSpaceOnUse" color-interpolation-filters="sRGB">
<feFlood flood-opacity="0" result="BackgroundImageFix"/>
<feBlend mode="normal" in="SourceGraphic" in2="BackgroundImageFix" result="shape"/>
<feColorMatrix in="SourceAlpha" type="matrix" values="0 0 0 0 0 0 0 0 0 0 0 0 0 0 0 0 0 0 127 0" result="hardAlpha"/>
<feOffset dy="4"/>
<feGaussianBlur stdDeviation="2"/>
<feComposite in2="hardAlpha" operator="arithmetic" k2="-1" k3="1"/>
<feColorMatrix type="matrix" values="0 0 0 0 0 0 0 0 0 0 0 0 0 0 0 0 0 0 0.15 0"/>
<feBlend mode="normal" in2="shape" result="effect1_innerShadow_25_138"/>
</filter>
</defs>
</svg>
