<svg width="204" height="173" viewBox="0 0 204 173" fill="none" xmlns="http://www.w3.org/2000/svg">
<g filter="url(#filter0_d_25_119)">
<path d="M17.6367 18.3125L19.0781 6.59375H22.5938L21.1523 18.3125C20.7695 21.4375 19.0156 23 15.8906 23H8.85938C5.73438 23 4.36328 21.4375 4.74609 18.3125L6.1875 6.59375H9.70312L8.26172 18.3125C8.16797 19.0938 8.51172 19.4844 9.29297 19.4844H16.3242C17.1055 19.4844 17.543 19.0938 17.6367 18.3125ZM32.4375 12.3125L38.8594 6.59375H43.8281L34.6172 14.7969L41.8125 23H36.8438L31.8281 17.2812L25.4062 23H20.4375L29.6484 14.7969L22.4531 6.59375H27.4219L32.4375 12.3125ZM49.6406 6.59375H61.3594C64.4844 6.59375 65.8555 8.15625 65.4727 11.2812L65.1797 13.625C64.8047 16.7109 63.0938 18.2734 60.0469 18.3125L64.1602 23H59.168L55.0547 18.3125H51.7148L51.1406 23H47.625L49.6406 6.59375ZM52.7227 10.1094L52.1484 14.7969H60.3516C61.1328 14.7969 61.5703 14.4062 61.6641 13.625L61.957 11.2812C62.0508 10.5 61.707 10.1094 60.9258 10.1094H52.7227ZM70.3242 19.4844H83.2148L82.7812 23H66.375L68.3906 6.59375H84.7969L84.3633 10.1094H71.4727L71.1094 13.0391H84L83.5781 16.5547H70.6875L70.3242 19.4844ZM98.8594 6.59375C101.984 6.59375 103.355 8.15625 102.973 11.2812H99.457C99.5508 10.5 99.207 10.1094 98.4258 10.1094H91.3945C90.6133 10.1094 90.1758 10.5 90.082 11.2812L90.0117 11.8672C89.9102 12.6484 90.25 13.0391 91.0312 13.0391H98.0625C101.188 13.0391 102.559 14.6016 102.176 17.7266L102.105 18.3125C101.723 21.4375 99.9688 23 96.8438 23H89.8125C86.6875 23 85.3164 21.4375 85.6992 18.3125H89.2148C89.1211 19.0938 89.4648 19.4844 90.2461 19.4844H97.2773C98.0586 19.4844 98.4961 19.0938 98.5898 18.3125L98.6602 17.7266C98.7617 16.9453 98.4219 16.5547 97.6406 16.5547H90.6094C87.4844 16.5547 86.1133 14.9922 86.4961 11.8672L86.5664 11.2812C86.9492 8.15625 88.7031 6.59375 91.8281 6.59375H98.8594ZM107.824 19.4844H120.715L120.281 23H103.875L105.891 6.59375H122.297L121.863 10.1094H108.973L108.609 13.0391H121.5L121.078 16.5547H108.188L107.824 19.4844ZM125.906 20.6562L124.266 23H120.211L133.793 3.59375L142.617 23H138.562L137.496 20.6562H125.906ZM132.938 10.625L128.367 17.1406H135.902L132.938 10.625ZM145.148 6.59375H156.867C159.992 6.59375 161.363 8.15625 160.98 11.2812L160.688 13.625C160.312 16.7109 158.602 18.2734 155.555 18.3125L159.668 23H154.676L150.562 18.3125H147.223L146.648 23H143.133L145.148 6.59375ZM148.23 10.1094L147.656 14.7969H155.859C156.641 14.7969 157.078 14.4062 157.172 13.625L157.465 11.2812C157.559 10.5 157.215 10.1094 156.434 10.1094H148.23ZM179.73 11.2812L179.59 12.4531H176.074L176.215 11.2812C176.309 10.5 175.965 10.1094 175.184 10.1094H168.152C167.371 10.1094 166.934 10.5 166.84 11.2812L165.973 18.3125C165.879 19.0938 166.223 19.4844 167.004 19.4844H174.035C174.816 19.4844 175.254 19.0938 175.348 18.3125L175.488 17.1406H179.004L178.863 18.3125C178.48 21.4375 176.727 23 173.602 23H166.57C163.445 23 162.074 21.4375 162.457 18.3125L163.324 11.2812C163.707 8.15625 165.461 6.59375 168.586 6.59375H175.617C178.742 6.59375 180.113 8.15625 179.73 11.2812ZM184.945 16.5547L184.148 23H180.633L182.648 6.59375H186.164L185.367 13.0391H194.742L195.539 6.59375H199.055L197.039 23H193.523L194.32 16.5547H184.945Z" fill="black" fill-opacity="0.7"/>
<path d="M17.6367 64.584L19.0781 52.8653H22.5938L21.1523 64.584C20.7695 67.709 19.0156 69.2715 15.8906 69.2715H8.85938C5.73438 69.2715 4.36328 67.709 4.74609 64.584L6.1875 52.8653H9.70312L8.26172 64.584C8.16797 65.3653 8.51172 65.7559 9.29297 65.7559H16.3242C17.1055 65.7559 17.543 65.3653 17.6367 64.584ZM33.1406 52.8653L32.707 56.3809H30.3633L29.2148 65.7559H31.5586L31.125 69.2715H22.9219L23.3555 65.7559H25.6992L26.8477 56.3809H24.5039L24.9375 52.8653H33.1406ZM41.4375 52.8653H53.1562C56.2812 52.8653 57.6523 54.4278 57.2695 57.5528L56.4023 64.584C56.0195 67.709 54.2656 69.2715 51.1406 69.2715H39.4219L41.4375 52.8653ZM44.5195 56.3809L43.3711 65.7559H51.5742C52.3555 65.7559 52.793 65.3653 52.8867 64.584L53.7539 57.5528C53.8477 56.7715 53.5039 56.3809 52.7227 56.3809H44.5195ZM62.1211 65.7559H75.0117L74.5781 69.2715H58.1719L60.1875 52.8653H76.5938L76.1602 56.3809H63.2695L62.9062 59.3106H75.7969L75.375 62.8262H62.4844L62.1211 65.7559ZM90.6562 52.8653C93.7812 52.8653 95.1523 54.4278 94.7695 57.5528H91.2539C91.3477 56.7715 91.0039 56.3809 90.2227 56.3809H83.1914C82.4102 56.3809 81.9727 56.7715 81.8789 57.5528L81.8086 58.1387C81.707 58.92 82.0469 59.3106 82.8281 59.3106H89.8594C92.9844 59.3106 94.3555 60.8731 93.9727 63.9981L93.9023 64.584C93.5195 67.709 91.7656 69.2715 88.6406 69.2715H81.6094C78.4844 69.2715 77.1133 67.709 77.4961 64.584H81.0117C80.918 65.3653 81.2617 65.7559 82.043 65.7559H89.0742C89.8555 65.7559 90.293 65.3653 90.3867 64.584L90.457 63.9981C90.5586 63.2169 90.2188 62.8262 89.4375 62.8262H82.4062C79.2812 62.8262 77.9102 61.2637 78.293 58.1387L78.3633 57.5528C78.7461 54.4278 80.5 52.8653 83.625 52.8653H90.6562ZM105.891 52.8653L105.457 56.3809H103.113L101.965 65.7559H104.309L103.875 69.2715H95.6719L96.1055 65.7559H98.4492L99.5977 56.3809H97.2539L97.6875 52.8653H105.891ZM119.953 52.8653C123.078 52.8653 124.449 54.4278 124.066 57.5528H120.551C120.645 56.7715 120.301 56.3809 119.52 56.3809H112.488C111.707 56.3809 111.27 56.7715 111.176 57.5528L110.309 64.584C110.215 65.3653 110.559 65.7559 111.34 65.7559H118.371C119.152 65.7559 119.59 65.3653 119.684 64.584L119.906 62.8262H114.047L114.469 59.3106H123.844L123.199 64.584C122.816 67.709 121.062 69.2715 117.938 69.2715H110.906C107.781 69.2715 106.41 67.709 106.793 64.584L107.66 57.5528C108.043 54.4278 109.797 52.8653 112.922 52.8653H119.953ZM129.762 58.8653L128.484 69.2715H124.969L127.289 50.3809L138.598 63.2715L139.875 52.8653H143.391L141.07 71.7559L129.762 58.8653Z" fill="black" fill-opacity="0.7"/>
<path d="M17.9062 99.1369C21.0312 99.1369 22.4023 100.699 22.0195 103.824H18.5039C18.5977 103.043 18.2539 102.653 17.4727 102.653H10.4414C9.66016 102.653 9.22266 103.043 9.12891 103.824L9.05859 104.41C8.95703 105.192 9.29688 105.582 10.0781 105.582H17.1094C20.2344 105.582 21.6055 107.145 21.2227 110.27L21.1523 110.856C20.7695 113.981 19.0156 115.543 15.8906 115.543H8.85938C5.73438 115.543 4.36328 113.981 4.74609 110.856H8.26172C8.16797 111.637 8.51172 112.028 9.29297 112.028H16.3242C17.1055 112.028 17.543 111.637 17.6367 110.856L17.707 110.27C17.8086 109.488 17.4688 109.098 16.6875 109.098H9.65625C6.53125 109.098 5.16016 107.535 5.54297 104.41L5.61328 103.824C5.99609 100.699 7.75 99.1369 10.875 99.1369H17.9062ZM33.8789 102.653L32.2969 115.543H28.7812L30.3633 102.653H23.918L24.3516 99.1369H40.7578L40.3242 102.653H33.8789ZM48.4453 108.067L40.6172 99.1369H45.5859L50.6016 104.856L57.0234 99.1369H61.9922L51.9609 108.067L51.0469 115.543H47.5312L48.4453 108.067ZM64.957 112.028H71.9883L71.5547 115.543H64.5234C61.3984 115.543 60.0273 113.981 60.4102 110.856L61.8516 99.1369H65.3672L63.9258 110.856C63.832 111.637 64.1758 112.028 64.957 112.028ZM77.8477 112.028H90.7383L90.3047 115.543H73.8984L75.9141 99.1369H92.3203L91.8867 102.653H78.9961L78.6328 105.582H91.5234L91.1016 109.098H78.2109L77.8477 112.028ZM112.336 99.1369C115.461 99.1369 116.832 100.699 116.449 103.824H112.934C113.027 103.043 112.684 102.653 111.902 102.653H104.871C104.09 102.653 103.652 103.043 103.559 103.824L102.691 110.856C102.598 111.637 102.941 112.028 103.723 112.028H110.754C111.535 112.028 111.973 111.637 112.066 110.856L112.289 109.098H106.43L106.852 105.582H116.227L115.582 110.856C115.199 113.981 113.445 115.543 110.32 115.543H103.289C100.164 115.543 98.793 113.981 99.1758 110.856L100.043 103.824C100.426 100.699 102.18 99.1369 105.305 99.1369H112.336ZM130.816 110.856L132.258 99.1369H135.773L134.332 110.856C133.949 113.981 132.195 115.543 129.07 115.543H122.039C118.914 115.543 117.543 113.981 117.926 110.856L119.367 99.1369H122.883L121.441 110.856C121.348 111.637 121.691 112.028 122.473 112.028H129.504C130.285 112.028 130.723 111.637 130.816 110.856ZM146.32 99.1369L145.887 102.653H143.543L142.395 112.028H144.738L144.305 115.543H136.102L136.535 112.028H138.879L140.027 102.653H137.684L138.117 99.1369H146.32ZM148.664 99.1369H160.383C163.508 99.1369 164.879 100.699 164.496 103.824L163.629 110.856C163.246 113.981 161.492 115.543 158.367 115.543H146.648L148.664 99.1369ZM151.746 102.653L150.598 112.028H158.801C159.582 112.028 160.02 111.637 160.113 110.856L160.98 103.824C161.074 103.043 160.73 102.653 159.949 102.653H151.746ZM169.348 112.028H182.238L181.805 115.543H165.398L167.414 99.1369H183.82L183.387 102.653H170.496L170.133 105.582H183.023L182.602 109.098H169.711L169.348 112.028Z" fill="black" fill-opacity="0.7"/>
<path d="M6.1875 145.408H17.9062C21.0312 145.408 22.4023 146.971 22.0195 150.096L21.7266 152.44C21.3516 155.526 19.6406 157.088 16.5938 157.127L20.707 161.815H15.7148L11.6016 157.127H8.26172L7.6875 161.815H4.17188L6.1875 145.408ZM9.26953 148.924L8.69531 153.612H16.8984C17.6797 153.612 18.1172 153.221 18.2109 152.44L18.5039 150.096C18.5977 149.315 18.2539 148.924 17.4727 148.924H9.26953ZM26.8711 158.299H39.7617L39.3281 161.815H22.9219L24.9375 145.408H41.3438L40.9102 148.924H28.0195L27.6562 151.854H40.5469L40.125 155.369H27.2344L26.8711 158.299ZM53.0156 155.369H42.4688L42.8906 151.854H53.4375L53.0156 155.369ZM56.5781 145.408H68.2969C71.4219 145.408 72.793 146.971 72.4102 150.096L71.543 157.127C71.1602 160.252 69.4062 161.815 66.2812 161.815H54.5625L56.5781 145.408ZM59.6602 148.924L58.5117 158.299H66.7148C67.4961 158.299 67.9336 157.908 68.0273 157.127L68.8945 150.096C68.9883 149.315 68.6445 148.924 67.8633 148.924H59.6602ZM77.2617 158.299H90.1523L89.7188 161.815H73.3125L75.3281 145.408H91.7344L91.3008 148.924H78.4102L78.0469 151.854H90.9375L90.5156 155.369H77.625L77.2617 158.299ZM105.797 145.408C108.922 145.408 110.293 146.971 109.91 150.096H106.395C106.488 149.315 106.145 148.924 105.363 148.924H98.332C97.5508 148.924 97.1133 149.315 97.0195 150.096L96.9492 150.682C96.8477 151.463 97.1875 151.854 97.9688 151.854H105C108.125 151.854 109.496 153.416 109.113 156.541L109.043 157.127C108.66 160.252 106.906 161.815 103.781 161.815H96.75C93.625 161.815 92.2539 160.252 92.6367 157.127H96.1523C96.0586 157.908 96.4023 158.299 97.1836 158.299H104.215C104.996 158.299 105.434 157.908 105.527 157.127L105.598 156.541C105.699 155.76 105.359 155.369 104.578 155.369H97.5469C94.4219 155.369 93.0508 153.807 93.4336 150.682L93.5039 150.096C93.8867 146.971 95.6406 145.408 98.7656 145.408H105.797ZM121.031 145.408L120.598 148.924H118.254L117.105 158.299H119.449L119.016 161.815H110.812L111.246 158.299H113.59L114.738 148.924H112.395L112.828 145.408H121.031ZM135.094 145.408C138.219 145.408 139.59 146.971 139.207 150.096H135.691C135.785 149.315 135.441 148.924 134.66 148.924H127.629C126.848 148.924 126.41 149.315 126.316 150.096L125.449 157.127C125.355 157.908 125.699 158.299 126.48 158.299H133.512C134.293 158.299 134.73 157.908 134.824 157.127L135.047 155.369H129.188L129.609 151.854H138.984L138.34 157.127C137.957 160.252 136.203 161.815 133.078 161.815H126.047C122.922 161.815 121.551 160.252 121.934 157.127L122.801 150.096C123.184 146.971 124.938 145.408 128.062 145.408H135.094ZM144.902 151.408L143.625 161.815H140.109L142.43 142.924L153.738 155.815L155.016 145.408H158.531L156.211 164.299L144.902 151.408Z" fill="black" fill-opacity="0.7"/>
</g>
<defs>
<filter id="filter0_d_25_119" x="-1" y="0" width="204.055" height="175.815" filterUnits="userSpaceOnUse" color-interpolation-filters="sRGB">
<feFlood flood-opacity="0" result="BackgroundImageFix"/>
<feColorMatrix in="SourceAlpha" type="matrix" values="0 0 0 0 0 0 0 0 0 0 0 0 0 0 0 0 0 0 127 0" result="hardAlpha"/>
<feOffset dy="4"/>
<feGaussianBlur stdDeviation="2"/>
<feComposite in2="hardAlpha" operator="out"/>
<feColorMatrix type="matrix" values="0 0 0 0 0 0 0 0 0 0 0 0 0 0 0 0 0 0 0.15 0"/>
<feBlend mode="normal" in2="BackgroundImageFix" result="effect1_dropShadow_25_119"/>
<feBlend mode="normal" in="SourceGraphic" in2="effect1_dropShadow_25_119" result="shape"/>
</filter>
</defs>
</svg>
